<?xml version="1.0" encoding="UTF-8" standalone="no"?>
<svg
   xmlns:dc="http://purl.org/dc/elements/1.1/"
   xmlns:cc="http://creativecommons.org/ns#"
   xmlns:rdf="http://www.w3.org/1999/02/22-rdf-syntax-ns#"
   xmlns:svg="http://www.w3.org/2000/svg"
   xmlns="http://www.w3.org/2000/svg"
   xmlns:sodipodi="http://sodipodi.sourceforge.net/DTD/sodipodi-0.dtd"
   xmlns:inkscape="http://www.inkscape.org/namespaces/inkscape"
   height="512"
   viewBox="0 0 64 64"
   width="512"
   version="1.1"
   id="svg72"
   sodipodi:docname="city.svg"
   inkscape:version="1.0.2-2 (e86c870879, 2021-01-15)">
  <metadata
     id="metadata78">
    <rdf:RDF>
      <cc:Work
         rdf:about="">
        <dc:format>image/svg+xml</dc:format>
        <dc:type
           rdf:resource="http://purl.org/dc/dcmitype/StillImage" />
        <dc:title></dc:title>
      </cc:Work>
    </rdf:RDF>
  </metadata>
  <defs
     id="defs76" />
  <sodipodi:namedview
     pagecolor="#ffffff"
     bordercolor="#666666"
     borderopacity="1"
     objecttolerance="10"
     gridtolerance="10"
     guidetolerance="10"
     inkscape:pageopacity="0"
     inkscape:pageshadow="2"
     inkscape:window-width="1920"
     inkscape:window-height="997"
     id="namedview74"
     showgrid="false"
     inkscape:zoom="1.5917969"
     inkscape:cx="256"
     inkscape:cy="256"
     inkscape:window-x="-9"
     inkscape:window-y="-9"
     inkscape:window-maximized="1"
     inkscape:current-layer="svg72" />
  <g
     id="Icons">
    <g
       id="g47">
      <path
         d="m32 4c-11.046 0-20 8.954-20 20 0 8.474 12.059 26.379 18.391 34.929.802 1.083 2.416 1.083 3.218.001 6.319-8.53 18.391-26.428 18.391-34.93 0-11.046-8.954-20-20-20z"
         fill="#c80a50"
         id="path45" />
    </g>
    <g
       id="g51">
      <circle
         cx="32"
         cy="25"
         fill="#a00028"
         r="14"
         id="circle49" />
    </g>
    <g
       id="g55">
      <circle
         cx="32"
         cy="24"
         fill="#f0f0f0"
         r="14"
         id="circle53" />
    </g>
  </g>
  <g
     id="g433"
     transform="matrix(0.05512331,0,0,0.05512331,17.848258,9.3055215)">
    <path
       d="M 340.212,432.821 465.616,393.899 C 488.072,356.886 501.002,313.452 501.002,266.998 501.002,131.687 391.311,21.996 256,21.996 c -135.311,0 -245.002,109.691 -245.002,245.002 0,63.962 24.52,122.191 64.661,165.823 z"
       fill="#4fabf7"
       id="path261" />
    <path
       d="m 322.499,53.725 c 0.571,-10.227 10.857,-17.687 20.896,-14.776 1.747,0.507 3.616,-0.09 4.729,-1.529 5.474,-7.075 14.046,-11.632 23.684,-11.632 13.317,0 24.596,8.699 28.479,20.724 0.643,1.992 2.63,3.168 4.71,2.931 7.064,-0.805 13.912,2.646 17.54,8.6 1.234,2.025 3.84,2.658 5.914,1.508 2.459,-1.363 5.373,-2.003 8.459,-1.629 6.317,0.765 11.392,5.894 12.094,12.218 0.933,8.4 -5.617,15.511 -13.829,15.511 h -117.37 c -7.792,0 -14.388,-6.376 -14.255,-14.167 0.138,-8.102 7.017,-13.986 14.499,-13.666 2.337,0.102 4.319,-1.756 4.45,-4.093 z"
       fill="#73c3f9"
       id="path263" />
    <path
       d="m 253.792,118.185 c 0.881,-15.778 16.749,-27.287 32.237,-22.795 2.695,0.782 5.579,-0.14 7.296,-2.359 8.445,-10.915 21.669,-17.945 36.538,-17.945 20.545,0 37.945,13.421 43.936,31.972 0.992,3.073 4.057,4.887 7.266,4.522 10.897,-1.242 21.462,4.082 27.059,13.268 1.904,3.125 5.924,4.101 9.124,2.327 3.793,-2.103 8.289,-3.09 13.05,-2.513 9.746,1.18 17.574,9.092 18.658,18.849 1.44,12.959 -8.666,23.93 -21.334,23.93 H 246.55 c -12.02,0 -22.197,-9.837 -21.992,-21.855 0.214,-12.5 10.826,-21.577 22.367,-21.083 3.608,0.152 6.666,-2.714 6.867,-6.318 z"
       fill="#9bd8f9"
       id="path265" />
    <path
       d="m 203.345,244.499 c -1.084,-9.757 -8.913,-17.669 -18.658,-18.849 -4.762,-0.577 -9.257,0.41 -13.05,2.513 -3.2,1.774 -7.22,0.798 -9.124,-2.327 -5.597,-9.186 -16.162,-14.51 -27.059,-13.268 -3.209,0.366 -6.273,-1.449 -7.266,-4.522 -5.991,-18.551 -23.391,-31.972 -43.936,-31.972 -14.869,0 -28.093,7.03 -36.538,17.945 -1.717,2.219 -4.601,3.14 -7.296,2.359 -7.022,-2.037 -14.118,-0.776 -19.865,2.673 -6.215,21.576 -9.554,44.37 -9.554,67.946 0,0.478 0.014,0.953 0.017,1.431 h 170.997 c 12.666,10e-4 22.772,-10.97 21.332,-23.929 z"
       fill="#73c3f9"
       id="path267" />
    <path
       d="m 371.932,373.021 h -1.528 v 110.664 c 39.699,-21.004 72.931,-52.59 95.936,-91.01 V 215.599 L 311.146,141.723 v 206.844 h 60.787 c 6.742,0 12.227,5.485 12.227,12.227 0,6.742 -5.486,12.227 -12.228,12.227 z"
       fill="#3c58a0"
       id="path269" />
    <path
       d="m 311.146,348.567 h 60.787 c 0.014,0 0.028,0.002 0.043,0.002 v -1.531 C 359.785,343.41 360.5,330 360.5,330 c 0,0 0,-123.5 0,-137.5 0,-14 12.381,-12.941 12.381,-12.941 l -1.508,-9.167 -60.226,-28.669 v 206.844 z"
       fill="#2a428c"
       id="path271" />
    <path
       d="m 74.728,431.821 c 37.923,41.683 90.03,70.222 148.691,78.018 V 373.53 h 10e-4 57.548 V 234.948 H 74.728 Z"
       fill="#dae2fe"
       id="path273" />
    <path
       d="m 128.756,273.321 c 0,-21.193 17.18,-38.373 38.373,-38.373 H 74.728 v 196.873 c 15.744,17.305 33.94,32.335 54.028,44.566 z"
       fill="#bec8f7"
       id="path275" />
    <path
       d="m 97.843,121.263 h 160.01 V 235.967 H 97.843 Z"
       fill="#dae2fe"
       id="path277" />
    <path
       d="m 140.871,208.849 v -60.468 c 0,-14.977 12.141,-27.118 27.118,-27.118 H 97.843 v 114.704 h 70.146 c -14.977,0 -27.118,-12.141 -27.118,-27.118 z"
       fill="#bec8f7"
       id="path279" />
    <g
       id="g283">
      <path
         d="m 177.848,46.835 c -4.22,0 -7.642,-3.421 -7.642,-7.642 V 7.642 c 0,-4.22 3.421,-7.642 7.642,-7.642 4.22,0 7.642,3.421 7.642,7.642 v 31.551 c -0.001,4.22 -3.422,7.642 -7.642,7.642 z"
         fill="#dae2fe"
         id="path281" />
    </g>
    <g
       fill="#a8b7ef"
       id="g293">
      <path
         d="m 105.292,261.422 c -4.22,0 -7.642,3.421 -7.642,7.642 v 184.871 c 4.932,4.182 10.028,8.174 15.284,11.961 V 269.064 c 0,-4.22 -3.421,-7.642 -7.642,-7.642 z"
         id="path285" />
      <path
         d="m 134.314,261.422 c -4.22,0 -7.642,3.421 -7.642,7.642 v 206.04 c 4.978,3.1 10.075,6.026 15.284,8.771 v -214.81 c 0,-4.221 -3.421,-7.643 -7.642,-7.643 z"
         id="path287" />
      <path
         d="m 163.337,261.422 c -4.22,0 -7.642,3.421 -7.642,7.642 v 221.522 c 5.007,2.25 10.105,4.334 15.284,6.25 V 269.064 c 0,-4.22 -3.422,-7.642 -7.642,-7.642 z"
         id="path289" />
      <path
         d="m 192.359,261.422 c -4.22,0 -7.642,3.421 -7.642,7.642 v 232.389 c 5.029,1.527 10.123,2.903 15.284,4.11 V 269.064 c -0.001,-4.22 -3.422,-7.642 -7.642,-7.642 z"
         id="path291" />
    </g>
    <g
       id="g297">
      <path
         d="m 221.38,337.868 c -4.22,0 -7.642,-3.421 -7.642,-7.642 v -61.162 c 0,-4.22 3.421,-7.642 7.642,-7.642 4.22,0 7.642,3.421 7.642,7.642 v 61.162 c 0,4.221 -3.421,7.642 -7.642,7.642 z"
         fill="#a8b7ef"
         id="path295" />
    </g>
    <g
       id="g301">
      <path
         d="m 134.315,217.627 c -4.22,0 -7.642,-3.421 -7.642,-7.642 v -60.851 c 0,-4.22 3.421,-7.642 7.642,-7.642 4.221,0 7.642,3.421 7.642,7.642 v 60.851 c -0.001,4.22 -3.422,7.642 -7.642,7.642 z"
         fill="#a8b7ef"
         id="path299" />
    </g>
    <g
       id="g305">
      <path
         d="m 163.337,217.627 c -4.22,0 -7.642,-3.421 -7.642,-7.642 v -60.851 c 0,-4.22 3.421,-7.642 7.642,-7.642 4.22,0 7.642,3.421 7.642,7.642 v 60.851 c -0.001,4.22 -3.422,7.642 -7.642,7.642 z"
         fill="#a8b7ef"
         id="path303" />
    </g>
    <g
       id="g309">
      <path
         d="m 192.359,217.627 c -4.22,0 -7.642,-3.421 -7.642,-7.642 v -60.851 c 0,-4.22 3.421,-7.642 7.642,-7.642 4.22,0 7.642,3.421 7.642,7.642 v 60.851 c -0.001,4.22 -3.422,7.642 -7.642,7.642 z"
         fill="#a8b7ef"
         id="path307" />
    </g>
    <g
       id="g313">
      <path
         d="m 221.381,217.627 c -4.22,0 -7.642,-3.421 -7.642,-7.642 v -60.851 c 0,-4.22 3.421,-7.642 7.642,-7.642 4.22,0 7.642,3.421 7.642,7.642 v 60.851 c 0,4.22 -3.422,7.642 -7.642,7.642 z"
         fill="#a8b7ef"
         id="path311" />
    </g>
    <g
       id="g317">
      <path
         d="m 221.38,217.627 c -4.22,0 -7.642,-3.421 -7.642,-7.642 v -60.851 c 0,-4.22 3.421,-7.642 7.642,-7.642 4.22,0 7.642,3.421 7.642,7.642 v 60.851 c 0,4.22 -3.421,7.642 -7.642,7.642 z"
         fill="#a8b7ef"
         id="path315" />
    </g>
    <g
       id="g321">
      <path
         d="m 250.403,337.868 c -4.22,0 -7.642,-3.421 -7.642,-7.642 v -61.162 c 0,-4.22 3.421,-7.642 7.642,-7.642 4.221,0 7.642,3.421 7.642,7.642 v 61.162 c 0,4.221 -3.422,7.642 -7.642,7.642 z"
         fill="#a8b7ef"
         id="path319" />
    </g>
    <path
       d="m 135.937,44.867 h 83.822 v 76.396 h -83.822 z"
       fill="#dae2fe"
       id="path323" />
    <path
       d="m 170.965,98.145 v -30.16 c 0,-12.768 10.35,-23.118 23.118,-23.118 h -58.146 v 76.396 h 58.146 c -12.768,0 -23.118,-10.35 -23.118,-23.118 z"
       fill="#bec8f7"
       id="path325" />
    <path
       d="m 221.381,373.53 v 136.024 c 11.312,1.6 22.866,2.446 34.619,2.446 41.959,0 81.45,-10.556 115.975,-29.145 V 373.53 Z"
       fill="#ffc839"
       id="path327" />
    <path
       d="m 275.556,477.455 v -69.383 c 0,-19.078 15.465,-34.543 34.543,-34.543 H 221.381 V 509.553 C 232.693,511.154 244.247,512 256,512 c 13.453,0 26.651,-1.091 39.514,-3.178 -11.792,-5.489 -19.958,-17.511 -19.958,-31.367 z"
       fill="#ffb332"
       id="path329" />
    <g
       id="g333">
      <path
         d="m 433.157,255.206 h -89.845 c -4.22,0 -7.642,-3.421 -7.642,-7.642 0,-4.22 3.421,-7.642 7.642,-7.642 h 89.845 c 4.221,0 7.642,3.421 7.642,7.642 -10e-4,4.221 -3.422,7.642 -7.642,7.642 z"
         fill="#73c3f9"
         id="path331" />
    </g>
    <g
       id="g337">
      <path
         d="m 433.157,287.405 h -89.845 c -4.22,0 -7.642,-3.421 -7.642,-7.642 0,-4.22 3.421,-7.642 7.642,-7.642 h 89.845 c 4.221,0 7.642,3.421 7.642,7.642 -10e-4,4.221 -3.422,7.642 -7.642,7.642 z"
         fill="#73c3f9"
         id="path335" />
    </g>
    <g
       id="g341">
      <path
         d="m 433.157,319.605 h -89.845 c -4.22,0 -7.642,-3.421 -7.642,-7.642 0,-4.221 3.421,-7.642 7.642,-7.642 h 89.845 c 4.221,0 7.642,3.421 7.642,7.642 0,4.221 -3.422,7.642 -7.642,7.642 z"
         fill="#73c3f9"
         id="path339" />
    </g>
    <g
       id="g345">
      <path
         d="m 433.157,351.804 h -29.591 c -4.22,0 -7.642,-3.421 -7.642,-7.642 0,-4.221 3.421,-7.642 7.642,-7.642 h 29.591 c 4.221,0 7.642,3.421 7.642,7.642 0,4.221 -3.422,7.642 -7.642,7.642 z"
         fill="#73c3f9"
         id="path343" />
    </g>
    <g
       id="g349">
      <path
         d="m 433.157,384.003 h -29.591 c -4.22,0 -7.642,-3.421 -7.642,-7.642 0,-4.221 3.421,-7.642 7.642,-7.642 h 29.591 c 4.221,0 7.642,3.421 7.642,7.642 0,4.221 -3.422,7.642 -7.642,7.642 z"
         fill="#73c3f9"
         id="path347" />
    </g>
    <g
       id="g353">
      <path
         d="m 433.157,416.203 h -35.704 c -4.22,0 -7.642,-3.421 -7.642,-7.642 0,-4.22 3.421,-7.642 7.642,-7.642 h 35.704 c 4.221,0 7.642,3.421 7.642,7.642 -10e-4,4.22 -3.422,7.642 -7.642,7.642 z"
         fill="#73c3f9"
         id="path351" />
    </g>
    <path
       d="m 433.157,433.118 h -35.705 c -4.22,0 -7.642,3.421 -7.642,7.642 0,4.221 3.421,7.642 7.642,7.642 h 23.227 c 5.209,-4.731 10.201,-9.695 14.986,-14.854 -0.787,-0.274 -1.629,-0.43 -2.508,-0.43 z"
       fill="#73c3f9"
       id="path355" />
    <g
       id="g359">
      <path
         d="m 467.265,223.707 c -1.102,0 -2.22,-0.239 -3.281,-0.745 L 306.126,147.756 c -3.811,-1.815 -5.427,-6.376 -3.612,-10.186 1.815,-3.81 6.376,-5.428 10.186,-3.612 l 157.858,75.206 c 3.81,1.815 5.427,6.376 3.612,10.186 -1.311,2.749 -4.05,4.357 -6.905,4.357 z"
         fill="#4f71b6"
         id="path357" />
    </g>
    <g
       id="g363">
      <path
         d="m 253.145,420.607 c -4.22,0 -7.642,-3.421 -7.642,-7.642 v -9.322 c 0,-4.22 3.421,-7.642 7.642,-7.642 4.22,0 7.642,3.421 7.642,7.642 v 9.322 c 0,4.22 -3.422,7.642 -7.642,7.642 z"
         fill="#ff9100"
         id="path361" />
    </g>
    <g
       id="g367">
      <path
         d="m 282.167,420.607 c -4.22,0 -7.642,-3.421 -7.642,-7.642 v -9.322 c 0,-4.22 3.421,-7.642 7.642,-7.642 4.221,0 7.642,3.421 7.642,7.642 v 9.322 c 0,4.22 -3.421,7.642 -7.642,7.642 z"
         fill="#ff9100"
         id="path365" />
    </g>
    <g
       id="g371">
      <path
         d="m 311.189,420.607 c -4.22,0 -7.642,-3.421 -7.642,-7.642 v -9.322 c 0,-4.22 3.421,-7.642 7.642,-7.642 4.221,0 7.642,3.421 7.642,7.642 v 9.322 c 0,4.22 -3.421,7.642 -7.642,7.642 z"
         fill="#ff9100"
         id="path369" />
    </g>
    <g
       id="g375">
      <path
         d="m 340.212,420.607 c -4.22,0 -7.642,-3.421 -7.642,-7.642 v -9.322 c 0,-4.22 3.421,-7.642 7.642,-7.642 4.22,0 7.642,3.421 7.642,7.642 v 9.322 c -10e-4,4.22 -3.422,7.642 -7.642,7.642 z"
         fill="#ff9100"
         id="path373" />
    </g>
    <g
       id="g379">
      <path
         d="m 253.145,460.137 c -4.22,0 -7.642,-3.421 -7.642,-7.642 v -9.322 c 0,-4.22 3.421,-7.642 7.642,-7.642 4.22,0 7.642,3.421 7.642,7.642 v 9.322 c 0,4.221 -3.422,7.642 -7.642,7.642 z"
         fill="#ff9100"
         id="path377" />
    </g>
    <g
       id="g383">
      <path
         d="m 282.167,460.137 c -4.22,0 -7.642,-3.421 -7.642,-7.642 v -9.322 c 0,-4.22 3.421,-7.642 7.642,-7.642 4.221,0 7.642,3.421 7.642,7.642 v 9.322 c 0,4.221 -3.421,7.642 -7.642,7.642 z"
         fill="#ff9100"
         id="path381" />
    </g>
    <g
       id="g387">
      <path
         d="m 311.189,460.137 c -4.22,0 -7.642,-3.421 -7.642,-7.642 v -9.322 c 0,-4.22 3.421,-7.642 7.642,-7.642 4.221,0 7.642,3.421 7.642,7.642 v 9.322 c 0,4.221 -3.421,7.642 -7.642,7.642 z"
         fill="#ff9100"
         id="path385" />
    </g>
    <g
       id="g391">
      <path
         d="m 340.212,460.137 c -4.22,0 -7.642,-3.421 -7.642,-7.642 v -9.322 c 0,-4.22 3.421,-7.642 7.642,-7.642 4.22,0 7.642,3.421 7.642,7.642 v 9.322 c -10e-4,4.221 -3.422,7.642 -7.642,7.642 z"
         fill="#ff9100"
         id="path389" />
    </g>
    <g
       id="g395">
      <path
         d="m 253.145,499.668 c -4.22,0 -7.642,-3.421 -7.642,-7.642 v -9.322 c 0,-4.22 3.421,-7.642 7.642,-7.642 4.22,0 7.642,3.421 7.642,7.642 v 9.322 c 0,4.22 -3.422,7.642 -7.642,7.642 z"
         fill="#ff9100"
         id="path393" />
    </g>
    <g
       id="g399">
      <path
         d="m 282.167,499.668 c -4.22,0 -7.642,-3.421 -7.642,-7.642 v -9.322 c 0,-4.22 3.421,-7.642 7.642,-7.642 4.221,0 7.642,3.421 7.642,7.642 v 9.322 c 0,4.22 -3.421,7.642 -7.642,7.642 z"
         fill="#ff9100"
         id="path397" />
    </g>
    <g
       id="g403">
      <path
         d="m 311.189,499.668 c -4.22,0 -7.642,-3.421 -7.642,-7.642 v -9.322 c 0,-4.22 3.421,-7.642 7.642,-7.642 4.221,0 7.642,3.421 7.642,7.642 v 9.322 c 0,4.22 -3.421,7.642 -7.642,7.642 z"
         fill="#ff9100"
         id="path401" />
    </g>
    <path
       d="m 340.212,475.062 c -4.22,0 -7.642,3.421 -7.642,7.642 v 9.322 c 0,2.762 1.471,5.175 3.667,6.517 3.798,-1.316 7.553,-2.722 11.263,-4.217 0.229,-0.726 0.354,-1.498 0.354,-2.3 v -9.322 c -10e-4,-4.221 -3.422,-7.642 -7.642,-7.642 z"
       fill="#ff9100"
       id="path405" />
    <g
       id="g409">
      <path
         d="M 371.976,374.549 H 221.381 c -7.597,0 -13.755,-6.158 -13.755,-13.755 0,-7.597 6.158,-13.755 13.755,-13.755 h 150.594 c 7.597,0 13.755,6.158 13.755,13.755 10e-4,7.597 -6.157,13.755 -13.754,13.755 z"
         fill="#ffdd40"
         id="path407" />
    </g>
    <path
       d="m 283.828,360.794 c 0,-7.597 6.158,-13.755 13.755,-13.755 h -76.202 c -7.597,0 -13.755,6.158 -13.755,13.755 0,7.597 6.158,13.755 13.755,13.755 h 76.202 c -7.597,0 -13.755,-6.158 -13.755,-13.755 z"
       fill="#ffc839"
       id="path411" />
    <g
       id="g415">
      <path
         d="m 219.759,52.508 h -83.822 c -4.22,0 -7.642,-3.421 -7.642,-7.642 0,-4.221 3.421,-7.642 7.642,-7.642 h 83.822 c 4.22,0 7.642,3.421 7.642,7.642 0,4.221 -3.422,7.642 -7.642,7.642 z"
         fill="#e9efff"
         id="path413" />
    </g>
    <g
       id="g419">
      <path
         d="M 257.853,128.905 H 97.843 c -4.22,0 -7.642,-3.421 -7.642,-7.642 0,-4.22 3.421,-7.642 7.642,-7.642 h 160.01 c 4.22,0 7.642,3.421 7.642,7.642 0,4.22 -3.422,7.642 -7.642,7.642 z"
         fill="#e9efff"
         id="path417" />
    </g>
    <g
       id="g423">
      <path
         d="M 280.967,242.59 H 74.728 c -4.22,0 -7.642,-3.421 -7.642,-7.642 0,-4.22 3.421,-7.642 7.642,-7.642 h 206.239 c 4.22,0 7.642,3.421 7.642,7.642 0,4.22 -3.421,7.642 -7.642,7.642 z"
         fill="#e9efff"
         id="path421" />
    </g>
    <g
       id="g427">
      <path
         d="m 163.337,100.599 c -4.22,0 -7.642,-3.421 -7.642,-7.642 V 71.48 c 0,-4.22 3.421,-7.642 7.642,-7.642 4.221,0 7.642,3.421 7.642,7.642 v 21.477 c 0,4.22 -3.422,7.642 -7.642,7.642 z"
         fill="#a8b7ef"
         id="path425" />
    </g>
    <g
       id="g431">
      <path
         d="m 192.359,100.599 c -4.22,0 -7.642,-3.421 -7.642,-7.642 V 71.48 c 0,-4.22 3.421,-7.642 7.642,-7.642 4.221,0 7.642,3.421 7.642,7.642 v 21.477 c 0,4.22 -3.422,7.642 -7.642,7.642 z"
         fill="#a8b7ef"
         id="path429" />
    </g>
  </g>
</svg>
