<?xml version="1.0" encoding="UTF-8" standalone="no"?>
<svg
   xmlns:dc="http://purl.org/dc/elements/1.1/"
   xmlns:cc="http://creativecommons.org/ns#"
   xmlns:rdf="http://www.w3.org/1999/02/22-rdf-syntax-ns#"
   xmlns:svg="http://www.w3.org/2000/svg"
   xmlns="http://www.w3.org/2000/svg"
   xmlns:sodipodi="http://sodipodi.sourceforge.net/DTD/sodipodi-0.dtd"
   xmlns:inkscape="http://www.inkscape.org/namespaces/inkscape"
   height="512"
   viewBox="0 0 64 64"
   width="512"
   version="1.1"
   id="svg72"
   sodipodi:docname="factory.svg"
   inkscape:version="1.0.2-2 (e86c870879, 2021-01-15)">
  <metadata
     id="metadata78">
    <rdf:RDF>
      <cc:Work
         rdf:about="">
        <dc:format>image/svg+xml</dc:format>
        <dc:type
           rdf:resource="http://purl.org/dc/dcmitype/StillImage" />
        <dc:title></dc:title>
      </cc:Work>
    </rdf:RDF>
  </metadata>
  <defs
     id="defs76" />
  <sodipodi:namedview
     pagecolor="#ffffff"
     bordercolor="#666666"
     borderopacity="1"
     objecttolerance="10"
     gridtolerance="10"
     guidetolerance="10"
     inkscape:pageopacity="0"
     inkscape:pageshadow="2"
     inkscape:window-width="1920"
     inkscape:window-height="997"
     id="namedview74"
     showgrid="false"
     inkscape:zoom="2.2511407"
     inkscape:cx="302.27641"
     inkscape:cy="231.22656"
     inkscape:window-x="-9"
     inkscape:window-y="-9"
     inkscape:window-maximized="1"
     inkscape:current-layer="svg72" />
  <g
     id="Icons">
    <g
       id="g47">
      <path
         d="m32 4c-11.046 0-20 8.954-20 20 0 8.474 12.059 26.379 18.391 34.929.802 1.083 2.416 1.083 3.218.001 6.319-8.53 18.391-26.428 18.391-34.93 0-11.046-8.954-20-20-20z"
         fill="#c80a50"
         id="path45" />
    </g>
    <g
       id="g51">
      <circle
         cx="32"
         cy="25"
         fill="#a00028"
         r="14"
         id="circle49" />
    </g>
    <g
       id="g55">
      <circle
         cx="32"
         cy="24"
         fill="#f0f0f0"
         r="14"
         id="circle53" />
    </g>
  </g>
  <g
     id="g1413"
     transform="matrix(0.05514131,0,0,0.05514131,18.443564,9.7084836)">
    <g
       id="g1287">
      <path
         d="m 245,15.819 c -135.31,0 -245,109.69 -245,245 0,46.08 12.731,89.183 34.854,126 l 1.146,1 h 418 l 1.146,-1 c 22.123,-36.817 34.854,-79.92 34.854,-126 0,-135.309 -109.69,-245 -245,-245 z"
         fill="#c8effe"
         id="path1285" />
    </g>
    <path
       d="m 57.92,418 v 1 c 44.939,53.1 112.067,86.819 187.08,86.819 75.013,0 142.141,-33.719 187.08,-86.819 v -1 z"
       fill="#537983"
       id="path1289" />
    <g
       id="g1293">
      <path
         d="m 417.344,387.106 0.214,0.713 H 448 v -68 c 0,-2.761 -2.239,-5 -5,-5 h -39.866 c 2.301,24.146 7.029,48.301 14.21,72.287 z"
         fill="#596c76"
         id="path1291" />
    </g>
    <g
       id="g1297">
      <path
         d="M 437.209,131.418 H 361.77 v 76.746 h 51.047 c 7.064,0 12.791,-5.727 12.791,-12.791 0,-7.064 -5.727,-12.791 -12.791,-12.791 H 387.75 c -7.064,0 -12.791,-5.727 -12.791,-12.791 0,-7.064 5.727,-12.791 12.791,-12.791 h 49.459 c 7.064,0 12.791,-5.727 12.791,-12.791 0,-7.064 -5.727,-12.791 -12.791,-12.791 z"
         fill="#8ebac5"
         id="path1295" />
    </g>
    <path
       d="m 269.791,131.418 c -7.064,0 -12.791,5.727 -12.791,12.791 0,1.307 0.198,2.567 0.563,3.755 h 34.902 c 2.206,0 4,1.794 4,4 V 157 h 17.84 v -25.582 z"
       fill="#8ebac5"
       id="path1299" />
    <path
       d="m 499,6.181 h -94.223 c -7.043,0 -13.084,5.51 -13.213,12.552 -0.131,7.174 5.645,13.03 12.789,13.03 h 1.897 c 7.043,0 13.084,5.51 13.213,12.552 0.131,7.174 -5.645,13.031 -12.789,13.031 h -70.883 c -7.064,0 -12.791,5.727 -12.791,12.791 0,0.973 0.118,1.917 0.324,2.828 h 34.445 c 2.206,0 4,1.794 4,4 v 5.963 h 112.084 c 7.043,0 13.084,-5.51 13.213,-12.552 0.131,-7.174 -5.645,-13.031 -12.789,-13.031 h -8.103 c -7.043,0 -13.084,-5.51 -13.213,-12.551 -0.131,-7.174 5.645,-13.031 12.789,-13.031 h 33.111 c 6.23,0 11.791,-4.317 12.922,-10.444 C 513.278,13.221 506.833,6.181 499,6.181 Z"
       fill="#8ebac5"
       id="path1301" />
    <g
       id="g1319">
      <g
         id="g1311">
        <path
           d="m 278.55,381.808 c 5.47,-19.26 9.381,-38.62 11.714,-57.989 H 266.83 c 2.333,19.37 6.247,38.729 11.72,57.989 z"
           fill="#ffffff"
           id="path1303" />
        <path
           d="m 262.832,243.819 c 0.859,0 1.649,0.35 2.227,0.985 0.576,0.634 0.858,1.49 0.776,2.349 -0.522,5.43 -0.905,10.87 -1.173,16.317 h 27.771 c -0.269,-5.447 -0.652,-10.887 -1.173,-16.317 -0.082,-0.859 0.2,-1.715 0.776,-2.349 0.577,-0.635 1.368,-0.985 2.227,-0.985 h 3.203 v -35 H 248 v 35 z"
           fill="#ffffff"
           id="path1305" />
        <g
           id="g1309">
          <path
             d="m 248,208.819 v 35 h 14.832 c 0.833,0 1.596,0.334 2.168,0.932 v -35.932 z"
             fill="#f2fbff"
             id="path1307" />
        </g>
      </g>
      <path
         d="M 297.464,209.819 H 248 v -57.855 c 0,-2.761 2.239,-5 5,-5 h 39.464 c 2.761,0 5,2.239 5,5 z"
         fill="#fe646f"
         id="path1313" />
      <path
         d="m 270,146.964 h -17 c -2.761,0 -5,2.239 -5,5 v 57.855 h 17 v -57.855 c 0,-2.761 2.239,-5 5,-5 z"
         fill="#fd4755"
         id="path1315" />
      <path
         d="m 266.944,324.819 h 23.206 c 2.565,-20.811 3.305,-41.632 2.224,-62.349 H 264.72 c -1.081,20.718 -0.342,41.539 2.224,62.349 z"
         fill="#fe646f"
         id="path1317" />
    </g>
    <g
       id="g1337">
      <g
         id="g1323">
        <path
           d="m 313.305,133.819 h 49.464 v 54.651 h -49.464 z"
           fill="#ffffff"
           id="path1321" />
      </g>
      <path
         d="M 313.305,133.819 H 330 v 54.651 h -16.695 z"
         fill="#f2fbff"
         id="path1325" />
      <path
         d="M 362.77,134.819 H 313.306 V 76.964 c 0,-2.761 2.239,-5 5,-5 h 39.464 c 2.761,0 5,2.239 5,5 z"
         fill="#fe646f"
         id="path1327" />
      <g
         id="g1331">
        <path
           d="m 335,71.964 h -16.695 c -2.761,0 -5,2.239 -5,5 v 57.855 H 330 V 76.964 c 0,-2.761 2.239,-5 5,-5 z"
           fill="#fd4755"
           id="path1329" />
      </g>
      <path
         d="m 313.305,187.47 h 49.464 v 56.349 h -49.464 z"
         fill="#fe646f"
         id="path1333" />
      <path
         d="M 313.305,187.47 H 330 v 56.349 h -16.695 z"
         fill="#fd4755"
         id="path1335" />
    </g>
    <g
       id="g1349">
      <path
         d="m 418.592,387.819 c -14.159,-46.857 -18.989,-93.714 -14.487,-140.571 0.228,-2.372 -1.616,-4.429 -3.999,-4.429 H 294.262 c -2.383,0 -4.227,2.058 -3.999,4.43 4.501,46.857 -0.328,93.714 -14.487,140.57 z"
         fill="#7ca1b1"
         id="path1339" />
      <path
         d="m 298.411,387.819 c 14.159,-46.857 18.988,-93.714 14.487,-140.57 -0.228,-2.372 1.616,-4.43 3.999,-4.43 h -22.635 c -2.383,0 -4.227,2.057 -3.999,4.43 4.501,46.857 -0.328,93.714 -14.487,140.57 z"
         fill="#678d98"
         id="path1341" />
      <g
         fill="#537983"
         id="g1347">
        <path
           d="m 370.583,387.819 v -72.991 c 0,-5.559 -4.507,-10.066 -10.066,-10.066 -5.559,0 -10.066,4.507 -10.066,10.066 v 72.991 z"
           id="path1343" />
        <path
           d="m 375.849,288.451 h -30.662 c -2.224,0 -4.026,-1.803 -4.026,-4.026 v -12.079 c 0,-2.224 1.803,-4.026 4.026,-4.026 h 30.662 c 2.224,0 4.026,1.803 4.026,4.026 v 12.079 c 0,2.223 -1.803,4.026 -4.026,4.026 z"
           id="path1345" />
      </g>
    </g>
    <g
       fill="#8ebac5"
       id="g1365">
      <path
         d="m 222.67,109.345 h -8.527 c -7.064,0 -12.791,-5.727 -12.791,-12.791 0,-7.064 5.727,-12.791 12.791,-12.791 h 49.459 c 7.064,0 12.791,-5.727 12.791,-12.791 0,-7.064 -5.727,-12.791 -12.791,-12.791 H 152.745 c -7.064,0 -12.791,5.727 -12.791,12.791 0,7.064 5.727,12.791 12.791,12.791 h 2.321 c 7.064,0 12.791,5.727 12.791,12.791 0,7.064 -5.727,12.791 -12.791,12.791 H 97.791 c -7.064,0 -12.791,5.727 -12.791,12.791 0,0.28 0.024,0.553 0.042,0.828 h 36.421 c 2.206,0 4,1.794 4,4 v 7.963 h 97.207 c 7.064,0 12.791,-5.727 12.791,-12.791 0,-7.064 -5.727,-12.791 -12.791,-12.791 z"
         id="path1351" />
      <path
         d="m 338.291,27.5 c 0,-7.064 -5.727,-12.791 -12.791,-12.791 h -31.418 c -7.064,0 -12.791,5.727 -12.791,12.791 0,7.064 5.727,12.791 12.791,12.791 H 325.5 c 7.064,0 12.791,-5.727 12.791,-12.791 z"
         id="path1353" />
      <path
         d="m 212.5,177.291 c 0,-7.064 -5.727,-12.791 -12.791,-12.791 h -31.418 c -7.064,0 -12.791,5.727 -12.791,12.791 0,7.064 5.727,12.791 12.791,12.791 h 31.418 c 7.064,0 12.791,-5.727 12.791,-12.791 z"
         id="path1355" />
      <g
         id="g1363">
        <path
           d="m 182.422,454.5 c 0,-4.142 -3.358,-7.5 -7.5,-7.5 H 156.5 c -4.142,0 -7.5,3.358 -7.5,7.5 0,4.142 3.358,7.5 7.5,7.5 h 18.422 c 4.142,0 7.5,-3.358 7.5,-7.5 z"
           id="path1357" />
        <path
           d="m 262.843,454.5 c 0,-4.142 -3.358,-7.5 -7.5,-7.5 h -18.422 c -4.142,0 -7.5,3.358 -7.5,7.5 0,4.142 3.358,7.5 7.5,7.5 h 18.422 c 4.143,0 7.5,-3.358 7.5,-7.5 z"
           id="path1359" />
        <path
           d="m 343.265,454.5 c 0,-4.142 -3.358,-7.5 -7.5,-7.5 h -18.422 c -4.142,0 -7.5,3.358 -7.5,7.5 0,4.142 3.358,7.5 7.5,7.5 h 18.422 c 4.142,0 7.5,-3.358 7.5,-7.5 z"
           id="path1361" />
      </g>
    </g>
    <g
       id="g1387">
      <g
         id="g1377">
        <g
           id="g1369">
          <path
             d="m 76.999,298.819 h 49.464 v 17 H 76.999 Z"
             fill="#ffffff"
             id="path1367" />
        </g>
        <path
           d="m 76.999,298.819 h 16.537 v 17 H 76.999 Z"
           fill="#f2fbff"
           id="path1371" />
        <path
           d="m 76.999,183.819 h 49.464 V 238.47 H 76.999 Z"
           fill="#ffffff"
           id="path1373" />
        <path
           d="M 76.999,183.819 H 93.536 V 238.47 H 76.999 Z"
           fill="#f2fbff"
           id="path1375" />
      </g>
      <path
         d="M 126.463,184.819 H 76.999 v -57.855 c 0,-2.761 2.239,-5 5,-5 h 39.464 c 2.761,0 5,2.239 5,5 z"
         fill="#fe646f"
         id="path1379" />
      <path
         d="M 98.536,121.964 H 81.999 c -2.761,0 -5,2.239 -5,5 v 57.855 h 16.537 v -57.855 c 0,-2.761 2.238,-5 5,-5 z"
         fill="#fd4755"
         id="path1381" />
      <path
         d="m 76.999,237.47 h 49.464 v 62.349 H 76.999 Z"
         fill="#fe646f"
         id="path1383" />
      <path
         d="m 76.999,237.47 h 16.537 v 62.349 H 76.999 Z"
         fill="#fd4755"
         id="path1385" />
    </g>
    <path
       d="m 139.75,387.106 c 7.18,-23.986 11.908,-48.141 14.209,-72.287 H 48 c -2.761,0 -5,2.239 -5,5 v 68 h 96.536 z"
       fill="#596c76"
       id="path1389" />
    <path
       d="M 65,314.819 H 48 c -2.761,0 -5,2.239 -5,5 v 68 h 17 v -68 c 0,-2.761 2.239,-5 5,-5 z"
       fill="#465a61"
       id="path1391" />
    <g
       id="g1403">
      <path
         d="m 281.317,387.819 c -14.159,-46.857 -18.989,-93.714 -14.487,-140.571 0.228,-2.372 -1.616,-4.429 -3.999,-4.429 H 156.988 c -2.383,0 -4.227,2.058 -3.999,4.43 4.501,46.857 -0.328,93.714 -14.487,140.57 z"
         fill="#7ca1b1"
         id="path1393" />
      <path
         d="m 161.137,387.819 c 14.159,-46.857 18.988,-93.714 14.487,-140.57 -0.228,-2.372 1.616,-4.43 3.999,-4.43 h -22.635 c -2.383,0 -4.226,2.057 -3.999,4.43 4.501,46.857 -0.328,93.714 -14.487,140.57 z"
         fill="#678d98"
         id="path1395" />
      <g
         fill="#537983"
         id="g1401">
        <path
           d="m 233.309,387.819 v -72.991 c 0,-5.559 -4.507,-10.066 -10.066,-10.066 -5.559,0 -10.066,4.507 -10.066,10.066 v 72.991 z"
           id="path1397" />
        <path
           d="m 238.574,288.451 h -30.662 c -2.224,0 -4.026,-1.803 -4.026,-4.026 v -12.079 c 0,-2.224 1.803,-4.026 4.026,-4.026 h 30.662 c 2.224,0 4.026,1.803 4.026,4.026 v 12.079 c 0.001,2.223 -1.802,4.026 -4.026,4.026 z"
           id="path1399" />
      </g>
    </g>
    <path
       d="m 432.08,419 c 8.517,-10.064 16.241,-20.821 23.067,-32.181 H 34.854 c 6.825,11.36 14.549,22.117 23.066,32.181 z"
       fill="#8ebac5"
       id="path1405" />
    <path
       d="m 96.982,398.281 c -3.033,-3.731 -5.958,-7.554 -8.773,-11.462 H 34.854 c 6.825,11.36 14.549,22.117 23.066,32.181 h 374.16 c 4.625,-5.465 9.007,-11.141 13.147,-17 H 104.771 c -3.024,0 -5.881,-1.372 -7.789,-3.719 z"
       fill="#7ca1b1"
       id="path1407" />
    <path
       d="M 84,369 H 72 c -2.761,0 -5,-2.239 -5,-5 v -26 c 0,-2.761 2.239,-5 5,-5 h 12 c 2.761,0 5,2.239 5,5 v 26 c 0,2.761 -2.239,5 -5,5 z"
       fill="#7ca1b1"
       id="path1409" />
    <path
       d="m 123,369 h -12 c -2.761,0 -5,-2.239 -5,-5 v -26 c 0,-2.761 2.239,-5 5,-5 h 12 c 2.761,0 5,2.239 5,5 v 26 c 0,2.761 -2.239,5 -5,5 z"
       fill="#7ca1b1"
       id="path1411" />
  </g>
</svg>
