<?xml version="1.0" encoding="UTF-8" standalone="no"?>
<svg
   xmlns:dc="http://purl.org/dc/elements/1.1/"
   xmlns:cc="http://creativecommons.org/ns#"
   xmlns:rdf="http://www.w3.org/1999/02/22-rdf-syntax-ns#"
   xmlns:svg="http://www.w3.org/2000/svg"
   xmlns="http://www.w3.org/2000/svg"
   xmlns:sodipodi="http://sodipodi.sourceforge.net/DTD/sodipodi-0.dtd"
   xmlns:inkscape="http://www.inkscape.org/namespaces/inkscape"
   height="512"
   viewBox="0 0 64 64"
   width="512"
   version="1.1"
   id="svg72"
   sodipodi:docname="park.svg"
   inkscape:version="1.0.2-2 (e86c870879, 2021-01-15)">
  <metadata
     id="metadata78">
    <rdf:RDF>
      <cc:Work
         rdf:about="">
        <dc:format>image/svg+xml</dc:format>
        <dc:type
           rdf:resource="http://purl.org/dc/dcmitype/StillImage" />
        <dc:title></dc:title>
      </cc:Work>
    </rdf:RDF>
  </metadata>
  <defs
     id="defs76" />
  <sodipodi:namedview
     pagecolor="#ffffff"
     bordercolor="#666666"
     borderopacity="1"
     objecttolerance="10"
     gridtolerance="10"
     guidetolerance="10"
     inkscape:pageopacity="0"
     inkscape:pageshadow="2"
     inkscape:window-width="1920"
     inkscape:window-height="997"
     id="namedview74"
     showgrid="false"
     inkscape:zoom="1.1255704"
     inkscape:cx="123.82635"
     inkscape:cy="244.04153"
     inkscape:window-x="-9"
     inkscape:window-y="-9"
     inkscape:window-maximized="1"
     inkscape:current-layer="svg72" />
  <g
     id="Icons">
    <g
       id="g47">
      <path
         d="m32 4c-11.046 0-20 8.954-20 20 0 8.474 12.059 26.379 18.391 34.929.802 1.083 2.416 1.083 3.218.001 6.319-8.53 18.391-26.428 18.391-34.93 0-11.046-8.954-20-20-20z"
         fill="#c80a50"
         id="path45" />
    </g>
    <g
       id="g51">
      <circle
         cx="32"
         cy="25"
         fill="#a00028"
         r="14"
         id="circle49" />
    </g>
    <g
       id="g55">
      <circle
         cx="32"
         cy="24"
         fill="#f0f0f0"
         r="14"
         id="circle53" />
    </g>
  </g>
  <g
     id="g1953"
     transform="matrix(0.05278035,0,0,0.05236514,18.480147,10.711428)">
    <path
       d="M 13.228,174.312 C 46.856,73.836 140.928,1.354 252.875,0.019 395.692,-1.685 512,113.575 512,256 c 0,21.417 -2.63,42.219 -7.585,62.103 C 487.846,384.597 427.716,431 359.188,431 H 174.937 C 79.785,431 4.645,199.957 13.228,174.312 Z"
       fill="#40c1fa"
       id="path1917" />
    <path
       d="M 467.462,256 C 467.462,372.787 372.787,467.462 256,467.462 139.213,467.462 44.538,372.787 44.538,256 44.538,139.213 139.213,44.538 256,44.538 c 116.787,0 211.462,94.675 211.462,211.462 z"
       fill="#72d1fb"
       id="path1919" />
    <path
       d="M 62.543,423.667 C 23.58,378.75 0,320.129 0,256 0,227.446 4.675,199.983 13.302,174.337 16.96,173.04 20.898,172.334 25,172.334 c 16.268,0 29.944,11.099 33.868,26.138 C 72.732,186.938 90.556,180 110,180 c 44.183,0 80,35.817 80,80 0,16.703 -5.119,32.21 -13.874,45.039 C 201.845,315.392 220,340.576 220,370 c 0,21.55 -9.738,40.826 -25.054,53.667 z"
       fill="#3d7a51"
       id="path1921" />
    <path
       d="m 262.978,402.111 c 0,-16.254 5.225,-31.287 14.086,-43.513 -0.888,-3.373 -1.362,-6.913 -1.362,-10.563 0,-22.563 18.071,-40.905 40.529,-41.344 2.674,-29.728 27.656,-53.025 58.08,-53.025 14.714,0 28.155,5.449 38.415,14.44 7.226,-7.328 17.168,-11.973 28.193,-12.301 22.463,-0.668 41.642,17.145 42.568,39.599 0.094,2.285 10e-4,4.529 -0.263,6.721 8.039,3.471 15.343,8.321 21.613,14.254 -9.409,38.913 -27.708,74.355 -52.626,104.057 -1.731,2.064 -4.307,3.23 -7,3.23 H 266.156 c -2.067,-6.821 -3.178,-14.058 -3.178,-21.555 z"
       fill="#5db33a"
       id="path1923" />
    <path
       d="m 177.792,39.515 c -1.8,11.19 5.628,21.782 16.761,23.903 4.914,0.936 6.771,6.994 3.225,10.523 -8.033,7.995 -8.25,20.93 -0.49,29.19 3.425,3.646 1.367,9.638 -3.576,10.409 -11.198,1.746 -18.977,12.083 -17.553,23.327 0.628,4.963 -4.56,8.601 -9.012,6.319 -10.086,-5.169 -22.455,-1.379 -27.913,8.554 -2.409,4.384 -8.744,4.278 -11.005,-0.185 -5.121,-10.111 -17.356,-14.314 -27.61,-9.486 -4.526,2.131 -9.589,-1.679 -8.795,-6.618 1.8,-11.19 -5.628,-21.782 -16.761,-23.903 -4.914,-0.936 -6.771,-6.994 -3.225,-10.523 8.033,-7.995 8.25,-20.93 0.49,-29.19 -3.425,-3.646 -1.367,-9.638 3.576,-10.409 11.199,-1.745 18.977,-12.082 17.554,-23.326 -0.628,-4.963 4.56,-8.601 9.012,-6.319 10.086,5.169 22.455,1.379 27.912,-8.554 2.409,-4.384 8.744,-4.278 11.005,0.185 5.121,10.111 17.356,14.314 27.61,9.486 4.526,-2.132 9.589,1.678 8.795,6.617 z"
       fill="#ffde91"
       id="path1925" />
    <path
       d="m 171.76,87.484 c 0,20.408 -16.544,36.952 -36.952,36.952 -20.408,0 -36.952,-16.544 -36.952,-36.952 0,-20.408 16.544,-36.952 36.952,-36.952 20.408,0 36.952,16.544 36.952,36.952 z"
       fill="#ffc14f"
       id="path1927" />
    <path
       d="m 156.98,87.484 c 0,12.245 -9.926,22.171 -22.171,22.171 -12.245,0 -22.171,-9.926 -22.171,-22.171 0,-12.245 9.926,-22.171 22.171,-22.171 12.245,0 22.171,9.926 22.171,22.171 z"
       fill="#ffa90b"
       id="path1929" />
    <path
       d="M 424.55,213.557 352.5,285.606 V 442.5 c 0,4.142 -3.358,7.5 -7.5,7.5 -4.142,0 -7.5,-3.358 -7.5,-7.5 V 285.606 l -72.05,-72.049 c -2.929,-2.929 -2.929,-7.678 0,-10.606 2.929,-2.929 7.678,-2.929 10.607,0 L 337.5,264.394 V 157.5 c 0,-4.142 3.358,-7.5 7.5,-7.5 4.142,0 7.5,3.358 7.5,7.5 v 106.894 l 61.443,-61.443 c 2.929,-2.929 7.678,-2.929 10.607,0 2.929,2.928 2.929,7.677 0,10.606 z"
       fill="#865b47"
       id="path1931" />
    <path
       d="M 319.485,136.061 C 326.118,145.713 330,157.403 330,170 c 0,33.137 -26.863,60 -60,60 -33.137,0 -60,-26.863 -60,-60 0,-27.969 19.137,-51.468 45.031,-58.118 C 251.809,105.273 250,97.848 250,90 250,68.374 263.73,49.956 282.948,42.984 281.059,39.055 280,34.651 280,30 280,13.432 293.431,0 310,0 c 16.569,0 30,13.432 30,30 0,8.207 -3.295,15.643 -8.635,21.06 C 342.73,60.225 350,74.263 350,90 c 0,20.702 -12.581,38.465 -30.515,46.061 z"
       fill="#489160"
       id="path1933" />
    <path
       d="m 470,180 c 0,27.614 -22.386,50 -50,50 -19.521,0 -36.428,-11.187 -44.662,-27.5 -9.056,4.788 -19.38,7.5 -30.338,7.5 -35.898,0 -65,-29.102 -65,-65 0,-25.52 14.707,-47.604 36.107,-58.241 C 306.204,77.623 300,64.536 300,50 300,22.386 322.386,0 350,0 366.967,0 381.959,8.452 390.999,21.374 393.84,20.481 396.864,20 400,20 415.893,20 428.898,32.358 429.933,47.989 447.904,58.354 460,77.764 460,100 c 0,14.283 -4.991,27.401 -13.324,37.704 C 460.692,146.562 470,162.194 470,180 Z"
       fill="#5db33a"
       id="path1935" />
    <path
       d="M 452.579,420 C 405.619,476.228 334.987,512 256,512 197.285,512 143.188,492.234 99.998,458.992 99.318,458.469 97.55,453.655 96.875,453.125 93.244,450.272 91.469,449.041 88,446 c -0.775,-0.68 -2.233,1.205 -2.999,0.516 C 75.856,438.302 67.305,429.439 59.422,420 Z"
       fill="#82cd64"
       id="path1937" />
    <path
       d="m 270,367.5 v 95 c 0,4.142 -3.358,7.5 -7.5,7.5 -4.142,0 -7.5,-3.358 -7.5,-7.5 v -95 c 0,-4.142 3.358,-7.5 7.5,-7.5 4.142,0 7.5,3.358 7.5,7.5 z M 92.5,360 c -4.142,0 -7.5,3.358 -7.5,7.5 v 79.016 c 4.837,4.344 9.841,8.507 15,12.478 V 367.5 c 0,-4.142 -3.358,-7.5 -7.5,-7.5 z"
       fill="#93dcfc"
       id="path1939" />
    <path
       d="m 270,277.5 v 95 c 0,4.142 -3.358,7.5 -7.5,7.5 -4.142,0 -7.5,-3.358 -7.5,-7.5 v -95 c 0,-4.142 3.358,-7.5 7.5,-7.5 4.142,0 7.5,3.358 7.5,7.5 z M 92.5,270 c -4.142,0 -7.5,3.358 -7.5,7.5 v 95 c 0,4.142 3.358,7.5 7.5,7.5 4.142,0 7.5,-3.358 7.5,-7.5 v -95 c 0,-4.142 -3.358,-7.5 -7.5,-7.5 z"
       fill="#c88a1d"
       id="path1941" />
    <path
       d="m 307.5,360 v 20 c 0,5.523 -4.477,10 -10,10 h -240 c -5.523,0 -10,-4.477 -10,-10 v -20 c 0,-5.523 4.477,-10 10,-10 h 240 c 5.523,0 10,4.477 10,10 z"
       fill="#b4e7fd"
       id="path1943" />
    <path
       d="m 320,350 v 10 c 0,5.523 -4.477,10 -10,10 H 45 c -5.523,0 -10,-4.477 -10,-10 v -10 c 0,-5.523 4.477,-10 10,-10 h 265 c 5.523,0 10,4.477 10,10 z M 310,290 H 45 c -5.523,0 -10,4.477 -10,10 v 10 c 0,5.523 4.477,10 10,10 h 265 c 5.523,0 10,-4.477 10,-10 v -10 c 0,-5.523 -4.477,-10 -10,-10 z m 0,-40 H 45 c -5.523,0 -10,4.477 -10,10 v 10 c 0,5.523 4.477,10 10,10 h 265 c 5.523,0 10,-4.477 10,-10 v -10 c 0,-5.523 -4.477,-10 -10,-10 z"
       fill="#ffc14f"
       id="path1945" />
    <path
       d="M 87.5,280 H 45 c -5.523,0 -10,-4.477 -10,-10 v -10 c 0,-5.523 4.477,-10 10,-10 h 42.5 c -5.523,0 -10,4.477 -10,10 v 10 c 0,5.523 4.477,10 10,10 z m 0,10 H 45 c -5.523,0 -10,4.477 -10,10 v 10 c 0,5.523 4.477,10 10,10 h 42.5 c -5.523,0 -10,-4.477 -10,-10 v -10 c 0,-5.523 4.477,-10 10,-10 z m 0,50 H 45 c -5.523,0 -10,4.477 -10,10 v 10 c 0,5.523 4.477,10 10,10 h 42.5 c -5.523,0 -10,-4.477 -10,-10 v -10 c 0,-5.523 4.477,-10 10,-10 z"
       fill="#ffb52d"
       id="path1947" />
    <path
       d="m 100,265 c 0,4.142 -3.358,7.5 -7.5,7.5 -4.142,0 -7.5,-3.358 -7.5,-7.5 0,-4.142 3.358,-7.5 7.5,-7.5 4.142,0 7.5,3.358 7.5,7.5 z m 163.254,-7.5 c -4.142,0 -7.5,3.358 -7.5,7.5 0,4.142 3.358,7.5 7.5,7.5 4.142,0 7.5,-3.358 7.5,-7.5 0,-4.142 -3.358,-7.5 -7.5,-7.5 z M 100,305 c 0,4.142 -3.358,7.5 -7.5,7.5 -4.142,0 -7.5,-3.358 -7.5,-7.5 0,-4.142 3.358,-7.5 7.5,-7.5 4.142,0 7.5,3.358 7.5,7.5 z m 163.254,-7.5 c -4.142,0 -7.5,3.358 -7.5,7.5 0,4.142 3.358,7.5 7.5,7.5 4.142,0 7.5,-3.358 7.5,-7.5 0,-4.142 -3.358,-7.5 -7.5,-7.5 z"
       fill="#c88a1d"
       id="path1949" />
    <path
       d="m 300,470 c 0,4.142 -3.358,7.5 -7.5,7.5 h -45 c -4.142,0 -7.5,-3.358 -7.5,-7.5 0,-4.142 3.358,-7.5 7.5,-7.5 h 45 c 4.142,0 7.5,3.358 7.5,7.5 z m 85.632,-87.99 c -3.763,-1.731 -8.217,-0.083 -9.948,3.68 l -11.237,24.433 -9.331,-25.223 c -1.437,-3.885 -5.751,-5.869 -9.636,-4.432 -3.885,1.438 -5.869,5.751 -4.432,9.636 l 15.613,42.205 c 0.666,1.8 2.019,3.346 3.9,4.211 3.763,1.731 8.217,0.083 9.948,-3.68 l 18.803,-40.883 c 1.731,-3.763 0.083,-8.217 -3.68,-9.947 z m -230,62.791 c -3.763,-1.73 -8.217,-0.083 -9.948,3.68 l -11.237,24.433 -9.331,-25.223 c -1.437,-3.885 -5.751,-5.869 -9.636,-4.432 -3.885,1.437 -5.869,5.751 -4.432,9.636 l 6.937,18.752 c 8.559,5.489 17.467,10.483 26.683,14.94 l 14.644,-31.84 c 1.731,-3.762 0.083,-8.215 -3.68,-9.946 z m 210,20 c -3.763,-1.73 -8.217,-0.083 -9.948,3.68 l -11.237,24.433 -9.331,-25.223 c -1.437,-3.885 -5.751,-5.869 -9.636,-4.432 -3.885,1.437 -5.869,5.751 -4.432,9.636 l 10.298,27.837 c 10.845,-3.335 21.382,-7.371 31.56,-12.055 l 6.406,-13.929 c 1.731,-3.763 0.083,-8.216 -3.68,-9.947 z"
       fill="#489160"
       id="path1951" />
  </g>
</svg>
