<?xml version="1.0" encoding="UTF-8" standalone="no"?>
<svg
   xmlns:dc="http://purl.org/dc/elements/1.1/"
   xmlns:cc="http://creativecommons.org/ns#"
   xmlns:rdf="http://www.w3.org/1999/02/22-rdf-syntax-ns#"
   xmlns:svg="http://www.w3.org/2000/svg"
   xmlns="http://www.w3.org/2000/svg"
   xmlns:sodipodi="http://sodipodi.sourceforge.net/DTD/sodipodi-0.dtd"
   xmlns:inkscape="http://www.inkscape.org/namespaces/inkscape"
   height="512"
   viewBox="0 0 64 64"
   width="512"
   version="1.1"
   id="svg72"
   sodipodi:docname="roads.svg"
   inkscape:version="1.0.2-2 (e86c870879, 2021-01-15)">
  <metadata
     id="metadata78">
    <rdf:RDF>
      <cc:Work
         rdf:about="">
        <dc:format>image/svg+xml</dc:format>
        <dc:type
           rdf:resource="http://purl.org/dc/dcmitype/StillImage" />
        <dc:title></dc:title>
      </cc:Work>
    </rdf:RDF>
  </metadata>
  <defs
     id="defs76" />
  <sodipodi:namedview
     pagecolor="#ffffff"
     bordercolor="#666666"
     borderopacity="1"
     objecttolerance="10"
     gridtolerance="10"
     guidetolerance="10"
     inkscape:pageopacity="0"
     inkscape:pageshadow="2"
     inkscape:window-width="1920"
     inkscape:window-height="997"
     id="namedview74"
     showgrid="false"
     inkscape:zoom="1.5917969"
     inkscape:cx="256"
     inkscape:cy="256"
     inkscape:window-x="-9"
     inkscape:window-y="-9"
     inkscape:window-maximized="1"
     inkscape:current-layer="svg72" />
  <g
     id="Icons">
    <g
       id="g47">
      <path
         d="m32 4c-11.046 0-20 8.954-20 20 0 8.474 12.059 26.379 18.391 34.929.802 1.083 2.416 1.083 3.218.001 6.319-8.53 18.391-26.428 18.391-34.93 0-11.046-8.954-20-20-20z"
         fill="#c80a50"
         id="path45" />
    </g>
    <g
       id="g51">
      <circle
         cx="32"
         cy="25"
         fill="#a00028"
         r="14"
         id="circle49" />
    </g>
    <g
       id="g55">
      <circle
         cx="32"
         cy="24"
         fill="#f0f0f0"
         r="14"
         id="circle53" />
    </g>
  </g>
  <g
     id="BULINE"
     transform="matrix(0.05276075,0,0,0.05260737,18.478835,10.561963)">
    <path
       id="XMLID_175_"
       d="m 512,256 c 0,70.692 -28.654,134.692 -74.981,181.019 C 390.692,483.346 326.692,512 256,512 185.308,512 121.308,483.346 74.981,437.019 28.654,390.692 0,326.692 0,256 0,185.308 28.654,121.308 74.981,74.981 121.308,28.654 185.308,0 256,0 326.692,0 390.692,28.654 437.019,74.981 483.346,121.308 512,185.308 512,256 Z"
       fill="#4a4b9b" />
  </g>
  <g
     id="Icons-2"
     transform="matrix(0.05276075,0,0,0.05260737,18.478835,10.561963)">
    <g
       id="XMLID_281_">
      <g
         id="XMLID_298_">
        <path
           id="XMLID_373_"
           d="M 491.45,97.652 V 227.211 356.77 c 0,1.528 -0.491,2.966 -1.344,4.141 -0.853,1.175 -2.069,2.087 -3.518,2.561 l -57.057,18.54 -57.057,18.54 c -0.942,0.307 -1.904,0.538 -2.876,0.694 -0.972,0.156 -1.953,0.237 -2.934,0.242 -0.981,0.006 -1.963,-0.064 -2.936,-0.21 -0.973,-0.146 -1.938,-0.369 -2.885,-0.67 l -49.402,-15.473 -49.402,-15.473 c -1.271,-0.401 -2.576,-0.663 -3.891,-0.789 -1.315,-0.125 -2.639,-0.114 -3.949,0.031 -0.608,0.067 -1.213,0.162 -1.814,0.287 -0.601,0.125 -1.197,0.282 -1.788,0.471 l -49.452,15.49 -49.452,15.49 c -0.931,0.295 -1.879,0.516 -2.835,0.662 -0.956,0.146 -1.921,0.219 -2.885,0.219 -0.97,0 -1.938,-0.073 -2.895,-0.219 -0.957,-0.146 -1.906,-0.367 -2.837,-0.662 L 81.06,382.04 21.878,363.439 c -1.466,-0.463 -2.699,-1.374 -3.564,-2.555 -0.866,-1.181 -1.365,-2.63 -1.365,-4.169 V 227.133 97.551 c 0,-2.375 1.154,-4.41 2.876,-5.673 1.722,-1.263 4.01,-1.754 6.28,-1.04 l 57.052,17.932 57.052,17.932 c 0.937,0.296 1.893,0.516 2.858,0.662 0.965,0.146 1.938,0.219 2.908,0.219 0.97,0 1.94,-0.075 2.902,-0.226 0.962,-0.151 1.915,-0.376 2.852,-0.677 l 49.402,-15.657 49.402,-15.657 c 0.602,-0.19 1.21,-0.351 1.822,-0.482 0.612,-0.131 1.228,-0.231 1.847,-0.298 1.327,-0.145 2.662,-0.153 3.985,-0.024 1.323,0.13 2.633,0.397 3.91,0.804 l 49.357,15.646 49.357,15.646 c 0.953,0.301 1.924,0.527 2.902,0.676 0.979,0.149 1.965,0.222 2.952,0.216 0.987,-0.006 1.974,-0.086 2.951,-0.243 0.977,-0.156 1.945,-0.388 2.892,-0.694 l 54.86,-17.826 54.86,-17.826 c 2.275,-0.742 4.581,-0.265 6.317,0.995 1.737,1.26 2.905,3.304 2.905,5.696 z"
           fill="#ffffff" />
        <path
           id="XMLID_372_"
           d="m 366.664,127.549 v 136.97 136.97 c -0.981,0.006 -1.963,-0.064 -2.936,-0.21 -0.973,-0.146 -1.938,-0.369 -2.885,-0.67 l -49.402,-15.473 -49.402,-15.473 c -1.271,-0.401 -2.576,-0.663 -3.891,-0.789 -1.315,-0.125 -2.639,-0.114 -3.949,0.031 V 231.744 94.585 c 1.327,-0.145 2.662,-0.153 3.985,-0.024 1.323,0.13 2.633,0.397 3.91,0.804 l 49.357,15.646 49.357,15.646 c 0.953,0.301 1.924,0.527 2.902,0.676 0.98,0.149 1.967,0.222 2.954,0.216 z"
           fill="#cccccc" />
        <path
           id="XMLID_371_"
           d="m 145.974,127.583 v 136.97 136.97 c -0.97,0 -1.938,-0.073 -2.895,-0.219 -0.957,-0.146 -1.906,-0.367 -2.837,-0.662 L 81.06,382.04 21.878,363.439 c -1.466,-0.463 -2.699,-1.374 -3.564,-2.555 -0.866,-1.181 -1.365,-2.63 -1.365,-4.169 V 227.133 97.551 c 0,-2.375 1.154,-4.41 2.876,-5.673 1.722,-1.263 4.01,-1.754 6.28,-1.04 l 57.052,17.932 57.052,17.932 c 0.937,0.296 1.893,0.516 2.858,0.662 0.965,0.146 1.937,0.219 2.907,0.219 z"
           fill="#cccccc" />
        <path
           id="XMLID_370_"
           d="M 145.966,384.828 90.791,367.219 35.616,349.61 V 230.65 111.691 l 55.175,17.609 55.175,17.609 v 118.96 z"
           fill="#00b764" />
        <path
           id="XMLID_369_"
           d="m 366.667,384.828 55.175,-17.609 55.175,-17.609 V 230.65 111.691 l -55.175,17.609 -55.175,17.609 v 118.96 z"
           fill="#5bdda2" />
        <path
           id="XMLID_368_"
           d="M 366.667,384.828 311.492,367.219 256.316,349.61 V 230.65 111.691 l 55.176,17.609 55.175,17.609 v 118.96 z"
           fill="#4ace99" />
        <path
           id="XMLID_367_"
           d="m 145.966,384.828 55.175,-17.609 55.175,-17.609 V 230.65 111.691 l -55.175,17.609 -55.175,17.609 v 118.96 z"
           fill="#38c689" />
        <path
           id="XMLID_366_"
           d="m 35.616,111.69 v 118.96 118.96 l 55.177,17.609 55.177,17.609 V 303.745 222.661 C 110.944,194.304 83.356,166.561 64.524,145.908 45.692,125.255 35.616,111.69 35.616,111.69 Z"
           fill="#04a558" />
        <path
           id="XMLID_322_"
           d="m 366.665,337.113 v 23.858 23.858 l 55.177,-17.609 55.177,-17.609 c -19.334,0.37 -38.224,-0.619 -56.63,-2.768 -18.407,-2.15 -36.328,-5.459 -53.724,-9.73 z"
           fill="#55ce94" />
        <path
           id="XMLID_321_"
           d="m 256.312,295.27 v 27.17 27.17 l 55.177,17.609 55.177,17.609 V 360.97 337.112 c -19.836,-4.869 -38.99,-10.988 -57.402,-18.061 -18.413,-7.071 -36.083,-15.098 -52.952,-23.781 z"
           fill="#48c18d" />
        <path
           id="XMLID_320_"
           d="m 145.969,222.662 v 81.084 81.083 l 55.171,-17.609 55.171,-17.609 v -27.17 -27.17 C 235.278,284.453 215.49,272.61 197.062,260.317 178.634,248.024 161.565,235.281 145.969,222.662 Z"
           fill="#39b77e" />
        <path
           id="XMLID_319_"
           d="m 122.283,248.26 c 0,0 -2.029,-11.295 3.804,-22.303 5.833,-11.009 19.527,-21.731 50.972,-20.587 0,0 7.861,-7.786 16.103,-10.185 8.242,-2.399 16.864,0.587 18.385,22.131 0,0 10.144,2.911 15.85,10.133 5.706,7.222 6.974,18.755 -10.778,35.999 0,0 -1.263,10.079 -6.901,19.096 -5.638,9.017 -15.653,16.973 -33.156,12.727 0,0 -18.895,2.709 -35.128,-1.813 -16.232,-4.522 -29.802,-16.275 -19.151,-45.198 z"
           fill="#41c2e5" />
        <path
           id="XMLID_318_"
           d="m 145.969,209.335 v 42.558 42.558 c -9.033,-1.785 -17.863,-5.455 -22.98,-12.626 -5.117,-7.172 -6.522,-17.845 -0.705,-33.639 0,0 -1.263,-7.027 1.066,-15.397 2.329,-8.37 8.25,-18.083 22.619,-23.454 z"
           fill="#40b2cc" />
        <path
           id="XMLID_317_"
           d="m 441.809,174.6 c 0,0 -6.34,-4.038 -14.708,-2.21 -8.369,1.827 -18.766,9.52 -26.881,32.98 0,0 -2.282,8.304 -9.763,12.456 -7.481,4.152 -20.161,4.152 -40.955,-12.456 0,0 -12.172,-3.869 -22.189,0.156 -10.017,4.025 -17.878,15.944 -9.256,47.519 0,0 -7.608,12.173 -8.495,23.537 -0.887,11.364 4.945,21.921 31.826,18.689 0,0 10.397,14.484 25.106,22.661 14.708,8.177 33.728,10.046 50.972,-15.183 0,0 11.158,-5.247 20.414,-14.681 9.256,-9.434 16.61,-23.057 9.003,-39.808 0,0 12.172,-11.971 17.625,-27.164 5.45,-15.193 4.182,-33.608 -22.699,-46.496 z"
           fill="#41c2e5" />
        <path
           id="XMLID_316_"
           d="m 366.665,216.63 v 50.8 50.8 c -7.4,-4.083 -13.719,-9.773 -18.189,-14.443 -4.47,-4.67 -7.089,-8.319 -7.089,-8.319 -26.881,3.236 -32.713,-7.321 -31.826,-18.687 0.887,-11.366 8.495,-23.541 8.495,-23.541 -8.622,-31.572 -0.761,-43.491 9.256,-47.517 10.017,-4.026 22.189,-0.158 22.189,-0.158 3.241,2.587 6.284,4.77 9.141,6.598 2.857,1.827 5.527,3.3 8.023,4.467 z"
           fill="#40b2cc" />
        <path
           id="XMLID_315_"
           d="m 54.32,315.597 c 0,0 2.259,-9.994 7.947,-15.678 5.688,-5.683 14.806,-7.056 28.523,10.189 0,0 9.776,5.957 14.664,13.214 4.888,7.257 4.888,15.814 -14.663,21.016 0,0 -15.458,3.824 -27.745,2.143 C 50.759,344.8 41.641,337.615 54.32,315.597 Z"
           fill="#40b2cc" />
        <path
           id="XMLID_314_"
           d="m 445.862,204.632 c 1.181,2.919 0.948,6.088 -0.382,8.852 -1.331,2.764 -3.759,5.123 -6.97,6.422 -3.211,1.299 -6.597,1.292 -9.475,0.23 -2.878,-1.062 -5.249,-3.178 -6.429,-6.097 -1.181,-2.919 -0.948,-6.088 0.382,-8.852 1.331,-2.764 3.759,-5.123 6.97,-6.422 3.211,-1.299 6.597,-1.292 9.475,-0.23 2.878,1.061 5.249,3.178 6.429,6.097 z"
           fill="#5bd3ef" />
        <path
           id="XMLID_313_"
           d="m 203.193,217.958 c 1.181,2.919 0.948,6.088 -0.382,8.852 -1.331,2.764 -3.759,5.123 -6.97,6.422 -3.211,1.299 -6.597,1.292 -9.475,0.23 -2.878,-1.062 -5.249,-3.178 -6.429,-6.097 -1.181,-2.919 -0.948,-6.088 0.382,-8.852 1.331,-2.764 3.759,-5.123 6.97,-6.422 3.211,-1.299 6.597,-1.292 9.475,-0.23 2.877,1.062 5.248,3.178 6.429,6.097 z"
           fill="#5bd3ef" />
        <path
           id="XMLID_312_"
           d="m 190.533,261.098 c 1.593,3.939 1.28,8.215 -0.516,11.945 -1.795,3.73 -5.073,6.913 -9.406,8.666 -4.333,1.753 -8.902,1.743 -12.786,0.31 -3.884,-1.433 -7.083,-4.288 -8.676,-8.227 -1.593,-3.939 -1.28,-8.216 0.516,-11.945 1.796,-3.729 5.073,-6.913 9.406,-8.666 4.333,-1.753 8.902,-1.743 12.786,-0.31 3.883,1.432 7.082,4.288 8.676,8.227 z"
           fill="#5bd3ef" />
        <path
           id="XMLID_311_"
           d="m 419.845,260.433 c 1.76,4.351 1.413,9.076 -0.57,13.196 -1.983,4.121 -5.604,7.637 -10.391,9.574 -4.787,1.936 -9.834,1.926 -14.125,0.343 -4.291,-1.583 -7.824,-4.737 -9.585,-9.089 -1.76,-4.352 -1.414,-9.076 0.57,-13.197 1.983,-4.121 5.604,-7.637 10.391,-9.574 4.787,-1.936 9.834,-1.926 14.125,-0.343 4.291,1.584 7.825,4.738 9.585,9.09 z"
           fill="#5bd3ef" />
        <path
           id="XMLID_310_"
           d="m 211.355,154.885 c 0.923,3.289 -0.457,6.888 -3.434,10.048 -2.977,3.16 -7.55,5.881 -13.016,7.415 -5.465,1.533 -10.787,1.589 -14.973,0.438 -4.186,-1.15 -7.237,-3.506 -8.159,-6.795 -0.923,-3.289 0.457,-6.888 3.434,-10.048 2.977,-3.16 7.55,-5.881 13.016,-7.415 5.465,-1.533 10.787,-1.589 14.973,-0.438 4.186,1.15 7.236,3.506 8.159,6.795 z"
           fill="#00b764" />
        <path
           id="XMLID_307_"
           d="m 88.079,192.21 c 0.923,3.289 -0.457,6.888 -3.434,10.048 -2.977,3.16 -7.55,5.881 -13.016,7.415 -5.465,1.533 -10.787,1.589 -14.973,0.438 -4.186,-1.15 -7.237,-3.506 -8.159,-6.795 -0.922,-3.289 0.457,-6.888 3.434,-10.048 2.977,-3.16 7.55,-5.881 13.016,-7.415 5.465,-1.533 10.787,-1.589 14.973,-0.438 4.186,1.15 7.237,3.506 8.159,6.795 z"
           fill="#048e49" />
        <path
           id="XMLID_306_"
           d="m 246.282,190.765 c 0.619,2.205 -0.306,4.618 -2.302,6.737 -1.996,2.119 -5.063,3.943 -8.727,4.972 -3.664,1.029 -7.233,1.065 -10.039,0.294 -2.807,-0.771 -4.852,-2.351 -5.471,-4.556 -0.619,-2.205 0.306,-4.618 2.302,-6.737 1.996,-2.119 5.063,-3.943 8.727,-4.972 3.664,-1.028 7.233,-1.065 10.039,-0.294 2.807,0.772 4.852,2.351 5.471,4.556 z"
           fill="#00b764" />
        <path
           id="XMLID_305_"
           d="m 81.559,259.502 c 0.619,2.205 -0.306,4.618 -2.302,6.737 -1.996,2.119 -5.063,3.943 -8.727,4.972 -3.664,1.028 -7.233,1.065 -10.039,0.294 -2.806,-0.771 -4.852,-2.351 -5.471,-4.556 -0.619,-2.205 0.306,-4.618 2.302,-6.737 1.996,-2.119 5.063,-3.943 8.727,-4.972 3.664,-1.028 7.233,-1.065 10.039,-0.294 2.806,0.771 4.852,2.351 5.471,4.556 z"
           fill="#048e49" />
        <path
           id="XMLID_304_"
           d="m 139.8,316.645 c 0.619,2.205 -0.306,4.618 -2.302,6.737 -1.996,2.119 -5.063,3.943 -8.727,4.972 -3.664,1.028 -7.233,1.065 -10.039,0.294 -2.806,-0.771 -4.852,-2.351 -5.471,-4.556 -0.619,-2.205 0.306,-4.618 2.302,-6.737 1.996,-2.119 5.063,-3.943 8.727,-4.972 3.664,-1.028 7.233,-1.065 10.039,-0.294 2.807,0.772 4.852,2.351 5.471,4.556 z"
           fill="#048e49" />
        <g
           fill="#00b764"
           id="g899">
          <path
             id="XMLID_303_"
             d="m 311.851,160.137 c 0.923,3.289 -0.457,6.888 -3.434,10.048 -2.977,3.16 -7.55,5.881 -13.016,7.415 -5.465,1.533 -10.787,1.589 -14.973,0.438 -4.186,-1.15 -7.237,-3.506 -8.159,-6.795 -0.923,-3.289 0.457,-6.888 3.434,-10.048 2.977,-3.16 7.55,-5.881 13.016,-7.415 5.465,-1.533 10.787,-1.589 14.973,-0.438 4.186,1.15 7.236,3.506 8.159,6.795 z" />
          <path
             id="XMLID_302_"
             d="m 422.301,154.885 c 0.923,3.289 -0.457,6.888 -3.434,10.048 -2.977,3.16 -7.55,5.881 -13.016,7.415 -5.465,1.533 -10.787,1.589 -14.973,0.438 -4.186,-1.15 -7.237,-3.506 -8.159,-6.795 -0.923,-3.289 0.457,-6.888 3.434,-10.048 2.977,-3.16 7.55,-5.881 13.016,-7.415 5.465,-1.533 10.787,-1.589 14.973,-0.438 4.185,1.15 7.236,3.506 8.159,6.795 z" />
          <path
             id="XMLID_301_"
             d="m 353.029,181.589 c 0.619,2.205 -0.306,4.618 -2.302,6.737 -1.996,2.119 -5.063,3.943 -8.727,4.972 -3.664,1.028 -7.233,1.065 -10.039,0.294 -2.807,-0.771 -4.852,-2.351 -5.471,-4.556 -0.619,-2.205 0.306,-4.618 2.302,-6.737 1.996,-2.119 5.063,-3.943 8.727,-4.972 3.664,-1.028 7.233,-1.065 10.039,-0.294 2.807,0.771 4.852,2.351 5.471,4.556 z" />
          <path
             id="XMLID_300_"
             d="m 466.903,316.645 c 0.619,2.205 -0.306,4.618 -2.302,6.737 -1.996,2.119 -5.063,3.943 -8.727,4.972 -3.664,1.028 -7.233,1.065 -10.039,0.294 -2.807,-0.771 -4.852,-2.351 -5.471,-4.556 -0.619,-2.205 0.306,-4.618 2.302,-6.737 1.996,-2.119 5.063,-3.943 8.727,-4.972 3.664,-1.028 7.233,-1.065 10.039,-0.294 2.807,0.772 4.852,2.351 5.471,4.556 z" />
          <path
             id="XMLID_299_"
             d="m 299.979,241.744 c 0.619,2.205 -0.306,4.618 -2.302,6.737 -1.996,2.119 -5.063,3.943 -8.727,4.972 -3.664,1.028 -7.233,1.065 -10.039,0.294 -2.806,-0.771 -4.852,-2.351 -5.471,-4.556 -0.619,-2.205 0.306,-4.618 2.302,-6.737 1.996,-2.119 5.063,-3.943 8.727,-4.972 3.664,-1.028 7.233,-1.065 10.039,-0.294 2.806,0.771 4.852,2.351 5.471,4.556 z" />
        </g>
      </g>
      <path
         d="M 422.584,341.113 H 294.98 c -6.822,0 -13.236,-2.657 -18.061,-7.481 -4.824,-4.825 -7.48,-11.239 -7.48,-18.061 V 273.37 c 0,-4.686 -1.825,-9.09 -5.138,-12.403 -3.313,-3.313 -7.718,-5.138 -12.404,-5.138 H 99.734 c -6.822,0 -13.236,-2.657 -18.061,-7.48 -4.824,-4.825 -7.481,-11.239 -7.481,-18.061 v -53.456 c 0,-2.209 1.791,-4 4,-4 2.209,0 4,1.791 4,4 v 53.456 c 0,4.686 1.825,9.091 5.138,12.404 3.313,3.313 7.718,5.138 12.403,5.138 h 152.164 c 6.823,0 13.237,2.657 18.061,7.481 4.824,4.823 7.481,11.237 7.481,18.06 v 42.202 c 0,4.685 1.825,9.09 5.138,12.404 3.313,3.313 7.718,5.138 12.404,5.138 h 127.604 c 2.209,0 4,1.791 4,4 0,2.209 -1.792,3.998 -4.001,3.998 z"
         fill="#ffffff"
         id="path902" />
      <g
         id="XMLID_289_">
        <path
           id="XMLID_295_"
           d="m 20.834,88.336 c 0,12.838 9.421,33.132 20.627,52.728 11.206,19.596 24.196,38.497 31.336,48.55 1.32,1.858 3.358,2.788 5.396,2.788 2.038,0 4.076,-0.929 5.396,-2.788 7.139,-10.053 20.13,-28.954 31.336,-48.55 11.206,-19.596 20.627,-39.89 20.627,-52.728 0,-15.839 -6.42,-30.179 -16.8,-40.559 -10.38,-10.38 -24.719,-16.8 -40.559,-16.8 -15.84,0 -30.179,6.42 -40.559,16.8 -10.38,10.38 -16.8,24.719 -16.8,40.559 z"
           fill="#dd1b1b" />
        <path
           id="XMLID_294_"
           d="m 89.953,180.496 c -1.206,1.755 -2.348,3.405 -3.414,4.93 -1.066,1.526 -2.054,2.928 -2.952,4.19 -1.319,1.858 -3.358,2.787 -5.396,2.787 -2.038,0 -4.077,-0.929 -5.396,-2.787 C 65.656,179.563 52.666,160.662 41.46,141.064 30.254,121.466 20.834,101.174 20.834,88.336 c 0,-12.879 4.245,-24.768 11.413,-34.342 7.168,-9.574 17.257,-16.834 28.945,-20.456 -6.986,5.23 -12.739,12.017 -16.745,19.846 -4.006,7.829 -6.267,16.7 -6.267,26.099 0,12.784 9.338,32.956 20.479,52.472 11.141,19.516 24.083,38.378 31.294,48.541 z"
           fill="#bf1b1b" />
        <path
           id="XMLID_293_"
           d="m 33.855,88.86 c 0,12.243 4.963,23.328 12.986,31.351 8.023,8.023 19.108,12.986 31.351,12.986 12.243,0 23.328,-4.963 31.351,-12.986 8.023,-8.023 12.986,-19.108 12.986,-31.351 0,-12.243 -4.963,-23.328 -12.986,-31.351 C 101.52,49.486 90.436,44.523 78.192,44.523 65.948,44.523 54.864,49.486 46.841,57.509 38.818,65.532 33.855,76.617 33.855,88.86 Z"
           fill="#ac60fc" />
        <path
           id="XMLID_292_"
           d="m 87.384,132.24 c -1.483,0.314 -2.994,0.552 -4.527,0.713 -1.533,0.161 -3.09,0.242 -4.665,0.242 -12.243,0 -23.328,-4.962 -31.351,-12.985 -8.023,-8.023 -12.986,-19.107 -12.986,-31.352 0,-12.243 4.963,-23.328 12.986,-31.351 8.023,-8.023 19.108,-12.986 31.351,-12.986 1.575,0 3.132,0.082 4.665,0.242 1.533,0.16 3.044,0.399 4.527,0.713 -10.037,2.116 -18.824,7.627 -25.101,15.277 -6.277,7.65 -10.044,17.437 -10.044,28.105 0,10.67 3.768,20.457 10.045,28.106 6.277,7.649 15.063,13.16 25.1,15.276 z"
           fill="#954cf7" />
        <path
           id="XMLID_291_"
           d="m 107.355,143.967 c -1.058,1.894 -2.537,3.317 -4.072,4.088 -1.535,0.771 -3.127,0.888 -4.411,0.171 -1.284,-0.718 -2.017,-2.135 -2.165,-3.846 -0.148,-1.711 0.29,-3.717 1.348,-5.61 1.058,-1.894 2.537,-3.317 4.072,-4.088 1.535,-0.771 3.127,-0.888 4.411,-0.171 1.284,0.718 2.017,2.135 2.165,3.846 0.148,1.711 -0.29,3.716 -1.348,5.61 z"
           fill="#e53535" />
        <path
           id="XMLID_290_"
           d="m 101.299,155.408 c -1.236,2.212 -2.963,3.874 -4.756,4.775 -1.793,0.9 -3.652,1.038 -5.152,0.199 -1.5,-0.838 -2.356,-2.494 -2.529,-4.492 -0.173,-1.999 0.339,-4.341 1.575,-6.553 1.236,-2.212 2.963,-3.874 4.756,-4.775 1.793,-0.9 3.652,-1.038 5.152,-0.199 1.5,0.838 2.356,2.494 2.529,4.492 0.172,1.999 -0.339,4.342 -1.575,6.553 z"
           fill="#ea4949" />
      </g>
      <g
         id="XMLID_282_">
        <path
           id="XMLID_288_"
           d="m 363.626,254.476 c 0,12.838 9.421,33.132 20.627,52.728 11.206,19.597 24.196,38.497 31.336,48.55 1.32,1.858 3.358,2.788 5.396,2.788 2.038,0 4.076,-0.929 5.396,-2.788 7.139,-10.053 20.13,-28.954 31.336,-48.55 11.206,-19.597 20.627,-39.89 20.627,-52.728 0,-15.839 -6.42,-30.179 -16.8,-40.559 -10.38,-10.38 -24.719,-16.8 -40.559,-16.8 -15.839,0 -30.179,6.42 -40.559,16.8 -10.38,10.381 -16.8,24.72 -16.8,40.559 z"
           fill="#dd1b1b" />
        <path
           id="XMLID_287_"
           d="m 432.745,346.637 c -1.206,1.755 -2.348,3.405 -3.414,4.93 -1.066,1.526 -2.054,2.928 -2.952,4.19 -1.319,1.858 -3.358,2.787 -5.396,2.787 -2.038,0 -4.077,-0.929 -5.396,-2.787 -7.139,-10.053 -20.129,-28.954 -31.335,-48.552 -11.206,-19.597 -20.626,-39.891 -20.626,-52.728 0,-12.879 4.245,-24.768 11.413,-34.342 7.167,-9.574 17.257,-16.834 28.945,-20.456 -6.986,5.23 -12.739,12.017 -16.745,19.846 -4.007,7.829 -6.267,16.7 -6.267,26.099 0,12.784 9.338,32.956 20.479,52.472 11.14,19.516 24.083,38.377 31.294,48.541 z"
           fill="#bf1b1b" />
        <path
           id="XMLID_286_"
           d="m 376.647,255.001 c 0,12.243 4.963,23.328 12.986,31.351 8.023,8.023 19.108,12.986 31.351,12.986 12.243,0 23.328,-4.963 31.351,-12.986 8.023,-8.023 12.986,-19.108 12.986,-31.351 0,-12.243 -4.963,-23.328 -12.986,-31.351 -8.023,-8.023 -19.108,-12.986 -31.351,-12.986 -12.243,0 -23.328,4.963 -31.351,12.986 -8.023,8.023 -12.986,19.107 -12.986,31.351 z"
           fill="#ac60fc" />
        <path
           id="XMLID_285_"
           d="m 430.177,298.381 c -1.483,0.314 -2.994,0.552 -4.527,0.713 -1.533,0.161 -3.09,0.242 -4.665,0.242 -12.243,0 -23.328,-4.962 -31.351,-12.985 -8.023,-8.023 -12.986,-19.107 -12.986,-31.352 0,-12.243 4.963,-23.328 12.986,-31.351 8.024,-8.024 19.108,-12.986 31.351,-12.986 1.575,0 3.132,0.082 4.665,0.242 1.533,0.16 3.044,0.399 4.527,0.713 -10.037,2.116 -18.824,7.627 -25.101,15.277 -6.277,7.65 -10.045,17.437 -10.045,28.105 0,10.67 3.768,20.457 10.045,28.106 6.277,7.649 15.063,13.16 25.101,15.276 z"
           fill="#954cf7" />
        <path
           id="XMLID_284_"
           d="m 450.147,310.108 c -1.058,1.894 -2.537,3.317 -4.072,4.088 -1.535,0.771 -3.127,0.888 -4.411,0.171 -1.284,-0.718 -2.017,-2.135 -2.165,-3.846 -0.148,-1.711 0.29,-3.717 1.348,-5.61 1.058,-1.893 2.537,-3.317 4.072,-4.088 1.535,-0.771 3.127,-0.888 4.411,-0.171 1.284,0.718 2.017,2.135 2.165,3.846 0.148,1.711 -0.29,3.716 -1.348,5.61 z"
           fill="#e53535" />
        <path
           id="XMLID_283_"
           d="m 444.091,321.549 c -1.236,2.212 -2.963,3.874 -4.756,4.775 -1.793,0.9 -3.652,1.038 -5.152,0.199 -1.5,-0.838 -2.356,-2.494 -2.529,-4.492 -0.173,-1.998 0.339,-4.341 1.575,-6.553 1.236,-2.212 2.963,-3.874 4.756,-4.775 1.793,-0.9 3.652,-1.038 5.152,-0.199 1.5,0.839 2.356,2.494 2.529,4.492 0.173,1.999 -0.339,4.341 -1.575,6.553 z"
           fill="#ea4949" />
      </g>
    </g>
  </g>
</svg>
